<?xml version="1.0" encoding="utf-8"?>
<!-- Generator: Adobe Illustrator 22.1.0, SVG Export Plug-In . SVG Version: 6.00 Build 0)  -->
<svg version="1.1" id="Layer_1" xmlns="http://www.w3.org/2000/svg" xmlns:xlink="http://www.w3.org/1999/xlink" x="0px" y="0px"
	 viewBox="0 0 248.9 148.7" style="enable-background:new 0 0 248.9 148.7;" xml:space="preserve">
<style type="text/css">
	.st0{fill:#1D1D1B;}
	.st1{fill:#EE7E22;}
	.st2{fill:#86A43D;}
</style>
<g>
	<g>
		<polygon class="st0" points="67.4,116.8 67.4,99.1 71.3,99.1 71.3,106.3 85.8,106.3 85.8,99.1 89.5,99.1 89.5,116.8 85.8,116.8 
			85.8,108.4 71.3,108.4 71.3,116.8 		"/>
		<path class="st0" d="M99.7,116.8V99.1h5.4c2.6,5.1,5.3,9.8,7.7,14.9c2.5-5.2,5.1-9.8,7.7-14.9h5.5v17.7h-3.6l-0.1-15l-7.7,15H111
			l-7.7-14.9v14.9H99.7z"/>
		<polygon class="st0" points="136.1,116.8 136.1,99.1 155.9,99.1 155.9,101.1 139.8,101.1 139.8,106.4 154.9,106.4 154.9,108.5 
			139.8,108.5 139.8,114.5 156.3,114.5 156.3,116.8 		"/>
		<polygon class="st0" points="165,116.8 165,99.1 168.8,99.1 168.8,114.3 182.7,114.3 182.7,116.8 		"/>
		<path class="st1" d="M125.3,80.1c6.8-21.5,16.1-38.9,19.5-49.6c2.2-7.1,2.3-15.1-2.2-21.4c-10.1-14.1-37-9.7-38.3,10.7
			c-0.2,3.2,0.3,6.4,1.2,9.4C108.6,39.4,118.6,58.1,125.3,80.1"/>
		<path class="st2" d="M125.3,92C110.8,61.7,92.8,81.4,78,75.7c-18.4-8.8-11-33.6,9.9-33.4C113,42.6,119,67.4,125.3,92"/>
		<path class="st2" d="M125.3,92c14.5-30.3,32.6-10.7,47.3-16.3c18.4-8.8,10.9-33.6-9.9-33.5C137.6,42.6,131.6,67.4,125.3,92"/>
		<path class="st0" d="M177.5,86.2h-1v2h1c0.5,0,1-0.1,1.2-0.3c0.3-0.2,0.4-0.4,0.4-0.8s-0.2-0.6-0.4-0.8
			C178.5,86.2,178,86.2,177.5,86.2 M177.7,85.4c0.9,0,1.5,0.2,2,0.4c0.4,0.3,0.6,0.7,0.6,1.3c0,0.4-0.2,0.8-0.4,1.2
			c-0.3,0.3-0.6,0.4-1.1,0.6l1.4,2.8h-1.3l-1.2-2.7h-1.2v2.7h-1.2v-6.3H177.7L177.7,85.4z M182.4,88.7c0-0.7-0.1-1.3-0.4-1.9
			c-0.3-0.6-0.5-1.1-1-1.5c-0.4-0.4-1-0.8-1.6-1.1c-0.6-0.3-1.2-0.4-1.9-0.4c-0.6,0-1.2,0.1-1.9,0.4c-0.5,0.3-1.1,0.6-1.5,1
			s-0.8,1-1.1,1.6s-0.4,1.2-0.4,1.9s0.1,1.2,0.4,1.8c0.3,0.6,0.6,1.1,1.1,1.6c0.4,0.4,1,0.8,1.5,1.1c0.6,0.3,1.2,0.4,1.8,0.4
			s1.2-0.1,1.9-0.4c0.6-0.3,1.2-0.6,1.6-1.1c0.4-0.4,0.8-1,1.1-1.5C182.2,90,182.4,89.4,182.4,88.7 M177.5,83.1
			c0.8,0,1.5,0.2,2.1,0.4c0.7,0.3,1.2,0.7,1.8,1.2c0.5,0.5,0.9,1.2,1.2,1.8c0.3,0.7,0.4,1.4,0.4,2.1c0,0.8-0.2,1.5-0.4,2.1
			c-0.3,0.6-0.7,1.2-1.2,1.8s-1.2,1-1.9,1.2c-0.7,0.3-1.4,0.4-2.1,0.4c-0.7,0-1.4-0.2-2.1-0.4c-0.7-0.3-1.2-0.7-1.8-1.2
			c-0.5-0.5-0.9-1.2-1.2-1.8c-0.3-0.6-0.4-1.3-0.4-2.1c0-0.7,0.2-1.4,0.4-2.1s0.7-1.3,1.2-1.9s1.1-0.9,1.8-1.2
			C176.1,83.2,176.8,83.1,177.5,83.1"/>
	</g>
</g>
<g>
	<path class="st0" d="M11.4,137.7H6.6l-1.2,4.5h5.4l-0.4,1.4h-7l3.2-12.5h6.8l-0.4,1.3H8l-1,3.9h4.8L11.4,137.7z"/>
	<path class="st0" d="M14.2,137c0.2-0.9,0.4-1.7,0.6-2.4h1.4l-0.3,1.5h0c0.7-0.8,1.9-1.7,3.4-1.7c1.2,0,3,0.7,2.2,3.8l-1.4,5.3h-1.6
		l1.3-5.2c0.4-1.4,0.2-2.6-1.4-2.6c-1.1,0-2.1,0.8-2.6,1.7c-0.1,0.2-0.2,0.5-0.3,0.8l-1.4,5.4h-1.6L14.2,137z"/>
	<path class="st0" d="M24.8,139.4c-0.5,2.2,0.6,3.1,2.3,3.1c1.2,0,1.9-0.2,2.6-0.5l0,1.2c-0.6,0.3-1.7,0.6-3.1,0.6
		c-2.8,0-3.9-1.8-3.2-4.5c0.7-2.7,2.8-4.8,5.4-4.8c2.9,0,3,2.6,2.6,4.2c-0.1,0.3-0.2,0.6-0.3,0.8H24.8z M29.8,138.2
		c0.3-1,0.3-2.6-1.6-2.6c-1.7,0-2.8,1.5-3.2,2.6H29.8z"/>
	<path class="st0" d="M33.6,137.4c0.3-1.1,0.5-2,0.7-2.8h1.4l-0.4,1.8h0.1c0.7-1.2,1.9-2,3-2c0.2,0,0.3,0,0.4,0l-0.4,1.5
		c-0.2,0-0.3,0-0.5,0c-1.1,0-2.2,0.9-2.7,2.1c-0.1,0.2-0.2,0.5-0.3,0.8l-1.2,4.8H32L33.6,137.4z"/>
	<path class="st0" d="M45.9,142.2c-0.5,2.1-1.3,3.3-2.3,4.1c-1.1,0.8-2.4,1.1-3.6,1.1c-1.1,0-2.2-0.3-2.8-0.7l0.7-1.3
		c0.5,0.4,1.3,0.7,2.4,0.7c1.7,0,3.1-0.9,3.7-3.1l0.3-1h0c-0.7,0.8-1.9,1.5-3.2,1.5c-2.2,0-3.3-1.9-2.7-4.4c0.8-3,3.2-4.7,5.3-4.7
		c1.6,0,2.2,0.8,2.4,1.5h0l0.4-1.3H48c-0.2,0.6-0.4,1.4-0.7,2.4L45.9,142.2z M45.4,138.1c0.1-0.3,0.1-0.5,0.1-0.7
		c0-1-0.6-1.7-1.8-1.7c-1.6,0-3,1.3-3.5,3.4c-0.5,1.8,0.1,3.2,1.8,3.2c1,0,2.1-0.6,2.7-1.7c0.2-0.3,0.3-0.6,0.4-0.9L45.4,138.1z"/>
	<path class="st0" d="M48.2,143.5l2.3-8.9h1.6l-2.3,8.9H48.2z M53,132.1c-0.1,0.6-0.6,1-1.3,1c-0.6,0-0.9-0.4-0.7-1
		c0.1-0.6,0.7-1,1.3-1C52.8,131.1,53.1,131.5,53,132.1z"/>
	<path class="st0" d="M52.7,141.9c0.4,0.3,1.2,0.6,2,0.6c1.2,0,1.9-0.6,2.1-1.3c0.2-0.8-0.2-1.2-1.2-1.6c-1.5-0.6-2-1.5-1.7-2.5
		c0.4-1.4,1.9-2.6,3.8-2.6c0.9,0,1.6,0.2,2,0.6l-0.7,1.2c-0.3-0.2-0.9-0.5-1.7-0.5c-1,0-1.6,0.6-1.8,1.2c-0.2,0.7,0.2,1.1,1.3,1.5
		c1.4,0.6,2,1.3,1.7,2.7c-0.4,1.6-1.9,2.7-4,2.7c-1,0-1.8-0.3-2.4-0.6L52.7,141.9z"/>
	<path class="st0" d="M59.8,143.5l2.3-8.9h1.6l-2.3,8.9H59.8z M64.6,132.1c-0.1,0.6-0.6,1-1.3,1c-0.6,0-0.9-0.4-0.7-1
		c0.1-0.6,0.7-1,1.3-1C64.5,131.1,64.8,131.5,64.6,132.1z"/>
	<path class="st0" d="M65.8,137c0.2-0.9,0.4-1.7,0.6-2.4h1.4l-0.3,1.5h0c0.7-0.8,1.9-1.7,3.4-1.7c1.2,0,3,0.7,2.2,3.8l-1.4,5.3h-1.6
		l1.3-5.2c0.4-1.4,0.2-2.6-1.4-2.6c-1.1,0-2.1,0.8-2.6,1.7c-0.1,0.2-0.2,0.5-0.3,0.8l-1.4,5.4h-1.6L65.8,137z"/>
	<path class="st0" d="M82.4,142.2c-0.5,2.1-1.3,3.3-2.3,4.1c-1.1,0.8-2.4,1.1-3.6,1.1c-1.1,0-2.2-0.3-2.8-0.7l0.7-1.3
		c0.5,0.4,1.3,0.7,2.4,0.7c1.7,0,3.1-0.9,3.7-3.1l0.3-1h0c-0.7,0.8-1.9,1.5-3.2,1.5c-2.2,0-3.3-1.9-2.7-4.4c0.8-3,3.2-4.7,5.3-4.7
		c1.6,0,2.2,0.8,2.4,1.5h0l0.4-1.3h1.4c-0.2,0.6-0.4,1.4-0.7,2.4L82.4,142.2z M81.8,138.1c0.1-0.3,0.1-0.5,0.1-0.7
		c0-1-0.6-1.7-1.8-1.7c-1.6,0-3,1.3-3.5,3.4c-0.5,1.8,0.1,3.2,1.8,3.2c1,0,2.1-0.6,2.7-1.7c0.2-0.3,0.3-0.6,0.4-0.9L81.8,138.1z"/>
	<path class="st0" d="M95.5,141.4c-0.2,0.8-0.4,1.5-0.4,2.1h-1.5l0.2-1.1h-0.1c-0.7,0.7-1.8,1.3-3.1,1.3c-1.8,0-2.4-1.3-2.1-2.6
		c0.6-2.2,2.8-3.3,6.2-3.3l0-0.2c0.2-0.7,0.3-2.1-1.5-2.1c-0.9,0-1.8,0.2-2.5,0.7l-0.1-1.1c0.9-0.5,2-0.8,3.2-0.8
		c2.7,0,2.9,1.9,2.5,3.6L95.5,141.4z M94.6,139c-1.8,0-3.9,0.3-4.3,2c-0.3,1.1,0.3,1.6,1.1,1.6c1.2,0,2.1-0.7,2.6-1.5
		c0.1-0.2,0.2-0.4,0.2-0.5L94.6,139z"/>
	<path class="st0" d="M104.7,131.3c0.7-0.2,1.9-0.3,3-0.3c1.6,0,2.6,0.3,3.2,0.9c0.5,0.5,0.7,1.2,0.5,2.2c-0.3,1.2-1.4,2.3-2.8,2.7
		l0,0.1c1.1,0.3,2.2,1.3,1.8,3.1c-0.3,1.1-0.9,1.9-1.7,2.5c-1.1,0.8-2.6,1.2-4.6,1.2c-1.1,0-1.9-0.1-2.5-0.1L104.7,131.3z
		 M103.5,142.3c0.3,0.1,0.8,0.1,1.3,0.1c1.7,0,3.4-0.6,3.8-2.4c0.4-1.7-0.8-2.4-2.6-2.4h-1.3L103.5,142.3z M105,136.4h1.5
		c1.7,0,2.9-0.9,3.2-2.1c0.4-1.4-0.6-2-2.2-2c-0.7,0-1.2,0.1-1.5,0.1L105,136.4z"/>
	<path class="st0" d="M113.1,137.4c0.3-1.1,0.5-2,0.7-2.8h1.4l-0.4,1.8h0.1c0.7-1.2,1.9-2,3-2c0.2,0,0.3,0,0.4,0l-0.4,1.5
		c-0.2,0-0.3,0-0.5,0c-1.1,0-2.2,0.9-2.7,2.1c-0.1,0.2-0.2,0.5-0.3,0.8l-1.2,4.8h-1.6L113.1,137.4z"/>
	<path class="st0" d="M117.6,143.5l2.3-8.9h1.6l-2.3,8.9H117.6z M122.4,132.1c-0.1,0.6-0.6,1-1.3,1c-0.6,0-0.9-0.4-0.7-1
		c0.1-0.6,0.7-1,1.3-1C122.3,131.1,122.6,131.5,122.4,132.1z"/>
	<path class="st0" d="M130,142.2c-0.5,2.1-1.3,3.3-2.3,4.1c-1.1,0.8-2.4,1.1-3.6,1.1c-1.1,0-2.2-0.3-2.8-0.7l0.7-1.3
		c0.5,0.4,1.3,0.7,2.4,0.7c1.7,0,3.1-0.9,3.7-3.1l0.3-1h0c-0.7,0.8-1.9,1.5-3.2,1.5c-2.2,0-3.3-1.9-2.7-4.4c0.8-3,3.2-4.7,5.3-4.7
		c1.6,0,2.2,0.8,2.4,1.5h0l0.4-1.3h1.4c-0.2,0.6-0.4,1.4-0.7,2.4L130,142.2z M129.4,138.1c0.1-0.3,0.1-0.5,0.1-0.7
		c0-1-0.6-1.7-1.8-1.7c-1.6,0-3,1.3-3.5,3.4c-0.5,1.8,0.1,3.2,1.8,3.2c1,0,2.1-0.6,2.7-1.7c0.2-0.3,0.3-0.6,0.4-0.9L129.4,138.1z"/>
	<path class="st0" d="M135.7,130.4h1.6l-1.5,5.6h0c0.4-0.5,0.9-0.9,1.5-1.2c0.6-0.3,1.2-0.4,1.8-0.4c1.2,0,2.9,0.7,2.1,3.8l-1.4,5.3
		h-1.6l1.3-5.1c0.4-1.4,0.2-2.6-1.4-2.6c-1.1,0-2.1,0.7-2.6,1.6c-0.2,0.2-0.2,0.5-0.3,0.8l-1.4,5.4h-1.6L135.7,130.4z"/>
	<path class="st0" d="M147.3,132.5l-0.6,2.1h2.3l-0.3,1.2h-2.3l-1.3,4.8c-0.3,1.1-0.1,1.7,0.8,1.7c0.4,0,0.7,0,1-0.1l-0.2,1.2
		c-0.3,0.1-0.9,0.2-1.5,0.2c-0.8,0-1.3-0.3-1.6-0.7c-0.3-0.5-0.3-1.3,0-2.3l1.3-4.9h-1.4l0.3-1.2h1.4l0.4-1.7L147.3,132.5z"/>
	<path class="st0" d="M150.5,139.4c-0.5,2.2,0.6,3.1,2.3,3.1c1.2,0,1.9-0.2,2.6-0.5l0,1.2c-0.6,0.3-1.7,0.6-3.1,0.6
		c-2.8,0-3.9-1.8-3.2-4.5c0.7-2.7,2.8-4.8,5.4-4.8c2.9,0,3,2.6,2.6,4.2c-0.1,0.3-0.2,0.6-0.3,0.8H150.5z M155.6,138.2
		c0.3-1,0.3-2.6-1.6-2.6c-1.7,0-2.8,1.5-3.2,2.6H155.6z"/>
	<path class="st0" d="M159.4,137.4c0.3-1.1,0.5-2,0.7-2.8h1.4l-0.4,1.8h0.1c0.7-1.2,1.9-2,3-2c0.2,0,0.3,0,0.4,0l-0.4,1.5
		c-0.2,0-0.3,0-0.5,0c-1.1,0-2.2,0.9-2.7,2.1c-0.1,0.2-0.2,0.5-0.3,0.8l-1.2,4.8h-1.6L159.4,137.4z"/>
	<path class="st0" d="M172.3,132.5h-3.8l0.4-1.4h9.2l-0.4,1.4h-3.8l-2.9,11.1h-1.6L172.3,132.5z"/>
	<path class="st0" d="M184.2,139c-0.9,3.3-3.5,4.8-5.7,4.8c-2.4,0-3.8-1.8-3.1-4.6c0.8-3,3.2-4.7,5.7-4.7
		C183.6,134.4,184.9,136.3,184.2,139z M177,139.1c-0.5,2,0.2,3.4,1.8,3.4c1.6,0,3.1-1.5,3.6-3.5c0.4-1.5,0.1-3.4-1.8-3.4
		C178.8,135.6,177.5,137.4,177,139.1z"/>
	<path class="st0" d="M186.7,137c0.2-0.9,0.4-1.7,0.6-2.4h1.4l-0.3,1.5h0.1c0.7-0.9,1.8-1.6,3.3-1.6c1.2,0,1.9,0.7,2,1.8h0
		c0.4-0.5,0.9-0.9,1.3-1.2c0.6-0.4,1.3-0.6,2.1-0.6c1.2,0,2.8,0.8,2,3.9l-1.4,5.3h-1.6l1.3-5c0.5-1.7,0.1-2.8-1.2-2.8
		c-0.9,0-1.8,0.7-2.3,1.5c-0.1,0.2-0.3,0.5-0.3,0.8l-1.4,5.5h-1.6l1.4-5.4c0.4-1.4,0-2.4-1.2-2.4c-1,0-2,0.8-2.4,1.6
		c-0.2,0.2-0.3,0.5-0.3,0.8l-1.4,5.4H185L186.7,137z"/>
	<path class="st0" d="M209.7,139c-0.9,3.3-3.5,4.8-5.7,4.8c-2.4,0-3.8-1.8-3.1-4.6c0.8-3,3.2-4.7,5.7-4.7
		C209.2,134.4,210.4,136.3,209.7,139z M202.6,139.1c-0.5,2,0.2,3.4,1.8,3.4c1.6,0,3.1-1.5,3.6-3.5c0.4-1.5,0.1-3.4-1.8-3.4
		C204.4,135.6,203.1,137.4,202.6,139.1z"/>
	<path class="st0" d="M212.2,137.4c0.3-1.1,0.5-2,0.7-2.8h1.4l-0.4,1.8h0.1c0.7-1.2,1.9-2,3-2c0.2,0,0.3,0,0.4,0L217,136
		c-0.2,0-0.3,0-0.5,0c-1.1,0-2.2,0.9-2.7,2.1c-0.1,0.2-0.2,0.5-0.3,0.8l-1.2,4.8h-1.6L212.2,137.4z"/>
	<path class="st0" d="M218.3,137.4c0.3-1.1,0.5-2,0.7-2.8h1.4l-0.4,1.8h0.1c0.7-1.2,1.9-2,3-2c0.2,0,0.3,0,0.4,0l-0.4,1.5
		c-0.2,0-0.3,0-0.5,0c-1.1,0-2.2,0.9-2.7,2.1c-0.1,0.2-0.2,0.5-0.3,0.8l-1.2,4.8h-1.6L218.3,137.4z"/>
	<path class="st0" d="M231.9,139c-0.9,3.3-3.5,4.8-5.7,4.8c-2.4,0-3.8-1.8-3.1-4.6c0.8-3,3.2-4.7,5.7-4.7
		C231.3,134.4,232.6,136.3,231.9,139z M224.8,139.1c-0.5,2,0.2,3.4,1.8,3.4c1.6,0,3.1-1.5,3.6-3.5c0.4-1.5,0.1-3.4-1.8-3.4
		C226.5,135.6,225.2,137.4,224.8,139.1z"/>
	<path class="st0" d="M235.6,134.6l0,4.5c0,1,0,1.9-0.1,2.8h0.1c0.4-0.9,1-1.9,1.5-2.8l2.6-4.6h1.4l0.2,4.5c0.1,1.1,0.1,2,0,2.9h0.1
		c0.4-0.9,0.9-1.8,1.4-2.9l2.4-4.5h1.6l-5.2,8.9h-1.5l-0.3-4.3c-0.1-1-0.1-1.9,0-2.9h0c-0.5,1.1-1,2-1.6,3l-2.5,4.3h-1.5l-0.4-8.9
		H235.6z"/>
</g>
</svg>
